<svg width="198" height="42" viewBox="0 0 198 42" fill="none" xmlns="http://www.w3.org/2000/svg">
<path opacity="0.7" d="M20.3074 21.0724H24.2181C28.3797 21.0724 31.7533 24.446 31.7533 28.6076V28.6076C31.7533 32.7692 28.3797 36.1429 24.2181 36.1429H6" stroke="#0B47F2" stroke-width="11" stroke-linecap="round"/>
<path opacity="0.7" d="M6.00029 6H24.2184C28.38 6 31.7536 9.37364 31.7536 13.5352V13.5352C31.7536 17.6968 28.38 21.0705 24.2184 21.0705H20.3077" stroke="#0B47F2" stroke-width="11" stroke-linecap="round"/>
<path opacity="0.7" d="M6 18.9149L6 36.0429" stroke="#0B47F2" stroke-width="11" stroke-linecap="round"/>
<path d="M51.8418 24.4541H46.7793V27.8818H52.7207V30H44.1426V17.2031H52.7031V19.3389H46.7793V22.3887H51.8418V24.4541ZM64.6738 30H62.0371L56.9043 21.5801V30H54.2676V17.2031H56.9043L62.0459 25.6406V17.2031H64.6738V30ZM69.7715 27.8818H76.2227V30H66.4756V28.4531L72.8037 19.3389H66.4844V17.2031H76.082V18.7148L69.7715 27.8818ZM80.6963 30H78.0596V17.2031H80.6963V30ZM93.5547 30H90.918L85.7852 21.5801V30H83.1484V17.2031H85.7852L90.9268 25.6406V17.2031H93.5547V30ZM103.557 24.4541H98.4941V27.8818H104.436V30H95.8574V17.2031H104.418V19.3389H98.4941V22.3887H103.557V24.4541ZM115.193 26.8271L118.094 17.2031H121.029L116.573 30H113.822L109.384 17.2031H112.311L115.193 26.8271ZM129.941 24.4541H124.879V27.8818H130.82V30H122.242V17.2031H130.803V19.3389H124.879V22.3887H129.941V24.4541ZM137.104 25.3154H135.004V30H132.367V17.2031H137.122C138.634 17.2031 139.8 17.54 140.62 18.2139C141.44 18.8877 141.851 19.8398 141.851 21.0703C141.851 21.9434 141.66 22.6729 141.279 23.2588C140.904 23.8389 140.333 24.3018 139.565 24.6475L142.334 29.877V30H139.504L137.104 25.3154ZM135.004 23.1797H137.131C137.793 23.1797 138.306 23.0127 138.669 22.6787C139.032 22.3389 139.214 21.873 139.214 21.2812C139.214 20.6777 139.041 20.2031 138.695 19.8574C138.355 19.5117 137.831 19.3389 137.122 19.3389H135.004V23.1797ZM143.863 30V17.2031H148.346C149.898 17.2031 151.076 17.502 151.879 18.0996C152.682 18.6914 153.083 19.5615 153.083 20.71C153.083 21.3369 152.922 21.8906 152.6 22.3711C152.277 22.8457 151.829 23.1943 151.255 23.417C151.911 23.5811 152.427 23.9121 152.802 24.4102C153.183 24.9082 153.373 25.5176 153.373 26.2383C153.373 27.4688 152.98 28.4004 152.195 29.0332C151.41 29.666 150.291 29.9883 148.838 30H143.863ZM146.5 24.4277V27.8818H148.759C149.38 27.8818 149.863 27.7354 150.209 27.4424C150.561 27.1436 150.736 26.7334 150.736 26.2119C150.736 25.04 150.13 24.4453 148.917 24.4277H146.5ZM146.5 22.5645H148.451C149.781 22.541 150.446 22.0107 150.446 20.9736C150.446 20.3936 150.276 19.9775 149.937 19.7256C149.603 19.4678 149.072 19.3389 148.346 19.3389H146.5V22.5645ZM160.097 25.3154H157.996V30H155.359V17.2031H160.114C161.626 17.2031 162.792 17.54 163.612 18.2139C164.433 18.8877 164.843 19.8398 164.843 21.0703C164.843 21.9434 164.652 22.6729 164.271 23.2588C163.896 23.8389 163.325 24.3018 162.558 24.6475L165.326 29.877V30H162.496L160.097 25.3154ZM157.996 23.1797H160.123C160.785 23.1797 161.298 23.0127 161.661 22.6787C162.024 22.3389 162.206 21.873 162.206 21.2812C162.206 20.6777 162.033 20.2031 161.688 19.8574C161.348 19.5117 160.823 19.3389 160.114 19.3389H157.996V23.1797ZM176.541 17.2031V25.6318C176.541 27.0322 176.102 28.1396 175.223 28.9541C174.35 29.7686 173.154 30.1758 171.637 30.1758C170.143 30.1758 168.956 29.7803 168.077 28.9893C167.198 28.1982 166.75 27.1113 166.732 25.7285V17.2031H169.369V25.6494C169.369 26.4873 169.568 27.0996 169.967 27.4863C170.371 27.8672 170.928 28.0576 171.637 28.0576C173.119 28.0576 173.872 27.2783 173.896 25.7197V17.2031H176.541ZM181.507 30H178.87V17.2031H181.507V30ZM187.967 24.8672L186.596 26.3438V30H183.959V17.2031H186.596V23.0039L187.756 21.4131L191.017 17.2031H194.26L189.716 22.8896L194.392 30H191.254L187.967 24.8672Z" fill="black"/>
</svg>
